<svg width="20" height="20" viewBox="0 0 20 20" fill="none" xmlns="http://www.w3.org/2000/svg">
<g clip-path="url(#clip0_1_30)">
<path d="M17.6471 7.61905H12.381V2.35286C12.381 1.05905 11.2943 0 10 0C8.70571 0 7.61905 1.05905 7.61905 2.35286V7.61905H2.35286C1.05905 7.61905 0 8.70571 0 10C0 11.2943 1.05905 12.381 2.35286 12.381H7.61905V17.6471C7.61905 18.941 8.70571 20 10 20C11.2943 20 12.381 18.941 12.381 17.6471V12.381H17.6471C18.941 12.381 20 11.2943 20 10C20 8.70571 18.941 7.61905 17.6471 7.61905Z" fill="white"/>
</g>
<defs>
<clipPath id="clip0_1_30">
<rect width="20" height="20" fill="white"/>
</clipPath>
</defs>
</svg>
